<?xml version="1.0" encoding="utf-8"?>
<!-- Generator: Adobe Illustrator 18.1.1, SVG Export Plug-In . SVG Version: 6.00 Build 0)  -->
<svg version="1.1" id="Layer_1" xmlns="http://www.w3.org/2000/svg" xmlns:xlink="http://www.w3.org/1999/xlink" x="0px" y="0px"
	 viewBox="0 0 226.8 49" enable-background="new 0 0 226.8 49" xml:space="preserve" fill="#fff">
<g>
	<path d="M0,23.5c2.6,0,3.9-1.6,3.9-4.7c0-1.2-0.2-3-0.6-5.5C2.9,10.9,2.7,9,2.7,7.7c0-5.2,3.3-7.8,10-7.8v1.7
		c-1.8,0-3.1,0.4-3.9,1.3C8,3.8,7.6,4.9,7.6,6.3s0.2,3.4,0.7,6.1C8.9,15,9.1,17,9.1,18.2c0,1.2-0.4,2.4-1.1,3.5
		c-0.7,1.1-1.8,1.9-3.1,2.3c1.3,0.4,2.4,1.1,3.1,2.2c0.7,1.1,1.1,2.3,1.1,3.6c0,1.3-0.2,3.2-0.7,5.9c-0.5,2.7-0.7,4.6-0.7,5.8
		c0,3.4,1.7,5,5,5v1.6c-6.6,0-10-2.6-10-7.8c0-1.1,0.2-3,0.6-5.5c0.4-2.5,0.6-4.4,0.6-5.6c0-3.1-1.3-4.7-3.9-4.7V23.5z"/>
	<path d="M36,36.4c-2.8,0-5.1-0.9-6.9-2.8c-1.8-1.9-2.7-4.7-2.7-8.4c0-3.8,1.1-6.7,3.3-8.9c2.2-2.2,5.1-3.2,8.7-3.2
		c1.9,0,3.7,0.4,5.4,1.3V2.8l-3.9-0.3V1.4l9.8-0.8v34.1l3.9,0.2l0,1.1l-9.6,0.5l0.1-4.1h-0.3c-0.8,1.3-1.8,2.3-3.2,3
		C39.1,36.1,37.6,36.4,36,36.4z M43.7,28.7V16.1c-1.2-1.1-2.8-1.7-4.7-1.7c-2.4,0-4.1,1.1-4.9,3.3c-0.7,2-1.1,4.4-1.1,7.5
		c0,6.5,1.4,9.7,4.3,9.7c1.7,0,3.2-0.7,4.5-2.2C43,31.3,43.7,29.9,43.7,28.7z"/>
	<path d="M66.8,35.7H55v-1.1l3-0.3V14.9l-3.9-0.2v-1l9.8-0.6v21.3l3,0.3V35.7z M64.2,5.4c0,0.9-0.3,1.7-1,2.4c-0.7,0.7-1.5,1-2.4,1
		c-1,0-1.8-0.3-2.4-1c-0.7-0.7-1-1.5-1-2.4c0-1,0.3-1.8,1-2.5s1.5-1,2.4-1c0.9,0,1.8,0.4,2.4,1.1S64.2,4.5,64.2,5.4z"/>
	<path d="M83,13.1c1.4-0.5,2.1-1.9,2.1-4.2c0-0.6-0.1-1.2-0.2-1.7c0.5-0.4,1-0.5,1.6-0.5c0.5,0,1,0.1,1.5,0.3
		c1.1,0.5,1.6,1.2,1.6,2.3c0,1.1-0.5,2-1.4,2.8c-0.9,0.8-2.2,1.3-3.8,1.5c1.8,0.6,3.2,1.6,4.2,2.9c1,1.3,1.5,2.9,1.5,4.8
		c0,1.9-0.9,3.7-2.8,5.3C85.2,28.2,83,29,80.3,29s-4,0.7-4,2.1c0,0.7,0.5,1.2,1.5,1.4c1,0.3,2.9,0.5,5.9,0.8
		c2.9,0.3,5.1,0.8,6.6,1.6c1.5,0.8,2.2,2.2,2.2,4c0,2.4-1.2,4.4-3.5,6.1c-2.3,1.7-5.4,2.5-9.1,2.5c-3.7,0-6.5-0.6-8.3-1.7
		c-1.8-1.1-2.7-2.7-2.7-4.6c0-1.2,0.4-2.4,1.3-3.5c0.9-1.1,2.2-1.9,3.9-2.4c-2.1-0.8-3.2-1.9-3.2-3.3c0-1,0.5-1.8,1.6-2.5
		c1-0.6,2.2-1,3.5-1c-2-0.5-3.6-1.5-4.7-2.9c-1.1-1.4-1.7-2.9-1.7-4.8c0-2.3,0.9-4.3,2.8-5.8c1.9-1.5,4.4-2.3,7.5-2.3
		C81.1,12.9,82.1,13,83,13.1z M73.9,40.8c0,1.7,0.5,3,1.5,3.9c1,0.9,2.5,1.4,4.5,1.4c2,0,3.8-0.5,5.3-1.6c1.5-1.1,2.3-2.3,2.3-3.8
		c0-1.5-0.4-2.4-1.2-2.8c-0.8-0.4-2.3-0.8-4.5-1.1l-0.5,0c-2.4-0.3-4.1-0.5-5-0.7c-0.7,0.4-1.2,1-1.7,1.9
		C74.2,38.9,73.9,39.8,73.9,40.8z M79.7,28.1c1.4,0,2.5-0.7,3.2-2c0.7-1.3,1.1-3,1.1-5.1c0-4.7-1.3-7.1-3.9-7.1
		c-1.4,0-2.5,0.6-3.2,1.9c-0.7,1.3-1.1,3-1.1,5.2C75.7,25.7,77,28.1,79.7,28.1z"/>
	<path d="M104.6,36.2c-3.3,0-5.9-1.1-7.9-3.2c-2-2.1-3-5-3-8.5c0-3.5,1.1-6.3,3.2-8.5c2.1-2.1,4.8-3.2,8.1-3.2
		c3.3,0,5.7,0.7,7.3,2.1c1.6,1.4,2.4,3.3,2.4,5.8c0,0.7-0.1,1.4-0.2,2.2H100v1.6c0,3.4,0.4,6,1.3,7.8c0.9,1.8,2.1,2.6,3.9,2.6
		c1.7,0,3.3-0.4,4.7-1.1c1.4-0.7,2.5-1.7,3.3-3c0.7,0.2,1,0.5,1,1c0,0.8-0.7,1.6-2.1,2.7c-0.7,0.5-1.7,0.9-3,1.3
		C107.7,36.1,106.2,36.2,104.6,36.2z M108.9,19.8c0-3.7-1.3-5.6-3.9-5.6c-2.7,0-4.4,2.4-4.9,7.1h8.7
		C108.9,20.7,108.9,20.2,108.9,19.8z"/>
	<path d="M129.2,14.6c1.4-1.2,2.7-1.7,3.8-1.7c1.1,0,1.9,0.3,2.3,0.8c0.4,0.6,0.6,1,0.6,1.4c0,1.3-0.5,2.1-1.4,2.7
		c-0.6-0.5-1.5-0.7-2.7-0.7c-1.2,0-2.4,0.4-3.6,1.1c-1.2,0.7-1.8,1.6-1.8,2.4v13.8l4.1,0.3v1.1h-12.8v-1.1l3-0.2V14.9l-3.7-0.2v-1.1
		l9.3-0.5l-0.3,5.6h0.2C126.9,17.2,127.8,15.8,129.2,14.6z"/>
	<path d="M143.5,20.5c-0.7,0.5-1.4,0.7-2.1,0.7c-0.7,0-1.4-0.2-1.9-0.7c-0.5-0.5-0.8-1.2-0.8-2.2c0-1,0.3-1.8,0.9-2.6
		c0.6-0.8,1.3-1.3,2.2-1.7c1.8-0.8,3.5-1.1,5.1-1.1c3.6,0,6.1,0.6,7.4,1.9c1.3,1.3,2,3.2,2,5.8v13.8l3.8,0.3v1l-8.7,0.5l-0.4-3.8
		c-1.4,2.6-3.9,3.9-7.4,3.9c-1.6,0-2.9-0.5-4.1-1.4c-1.1-1-1.7-2.3-1.7-4c0-2.3,1.2-4.1,3.5-5.2c2.3-1.2,5.5-1.8,9.6-1.8v-3.9
		c0-1.9-0.3-3.3-0.8-4.3c-0.5-1-1.5-1.5-2.9-1.5s-2.5,0.6-3.2,1.7c-0.5,0.8-0.7,1.6-0.7,2.4C143.3,19.1,143.4,19.8,143.5,20.5z
		 M150.8,25c-3.5,0-5.8,0.9-6.7,2.8c-0.4,0.8-0.6,1.8-0.6,3c0,2,0.7,3.2,2.1,3.6c0.2,0.1,0.4,0.1,0.7,0.1c1,0,2-0.5,2.9-1.5
		c1-1,1.5-2.3,1.6-4V25z"/>
	<path d="M169.7,36.2c-2.9,0-4.8-1-5.6-3.1c-0.3-0.9-0.5-2-0.5-3.3c0-5.1,0.1-10.1,0.2-15.2h-3.1v-1.2h3.2l0-6.7h5.9l-0.1,6.7h6.4
		v1.2h-6.4l-0.1,3.7c-0.1,4.9-0.1,9.5-0.1,13.6c0,1.2,0.1,2,0.4,2.4c0.3,0.4,0.7,0.6,1.4,0.6s1.4-0.5,2.3-1.4c0.8-1,1.4-2.1,1.8-3.5
		c0.6,0,0.9,0.2,0.9,0.6c0,0.1,0,0.2,0,0.3c-0.5,1.6-1.3,2.9-2.5,3.8C172.6,35.8,171.2,36.2,169.7,36.2z"/>
	<path d="M190.2,35.7h-11.8v-1.1l3-0.3V14.9l-3.9-0.2v-1l9.8-0.6v21.3l3,0.3V35.7z M187.6,5.4c0,0.9-0.3,1.7-1,2.4
		c-0.7,0.7-1.5,1-2.4,1c-1,0-1.8-0.3-2.4-1c-0.7-0.7-1-1.5-1-2.4c0-1,0.3-1.8,1-2.5c0.7-0.7,1.5-1,2.4-1c0.9,0,1.8,0.4,2.4,1.1
		C187.2,3.7,187.6,4.5,187.6,5.4z"/>
	<path d="M199.9,33c0,0.9-0.3,1.6-0.9,2.3c-0.6,0.7-1.4,1-2.3,1c-0.9,0-1.7-0.3-2.3-1c-0.6-0.6-0.9-1.4-0.9-2.3c0-0.9,0.3-1.7,1-2.3
		c0.6-0.6,1.4-1,2.3-1c0.9,0,1.6,0.3,2.3,1C199.6,31.4,199.9,32.1,199.9,33z"/>
	<path d="M226.8,23.5v1.2c-2.6,0-3.9,1.6-3.9,4.7c0,1.2,0.2,3,0.6,5.6c0.4,2.5,0.6,4.4,0.6,5.5c0,5.2-3.3,7.8-10,7.8v-1.6
		c3.3,0,5-1.7,5-5c0-1.2-0.2-3.1-0.7-5.8c-0.5-2.7-0.7-4.6-0.7-5.9c0-1.2,0.4-2.4,1.1-3.6c0.7-1.1,1.8-1.9,3.1-2.2
		c-1.3-0.4-2.4-1.2-3.1-2.3c-0.7-1.1-1.1-2.3-1.1-3.5c0-1.2,0.2-3.2,0.7-5.9c0.5-2.7,0.7-4.7,0.7-6.1s-0.4-2.5-1.1-3.4
		c-0.7-0.9-2-1.3-3.9-1.3v-1.7c6.6,0,10,2.6,10,7.8c0,1.3-0.2,3.1-0.6,5.6c-0.4,2.4-0.6,4.3-0.6,5.5
		C222.8,21.9,224.1,23.5,226.8,23.5z"/>
</g>
</svg>
