<?xml version="1.0" encoding="utf-8"?>
<!-- Generator: Adobe Illustrator 18.1.1, SVG Export Plug-In . SVG Version: 6.00 Build 0)  -->
<svg version="1.1" id="Layer_1" xmlns="http://www.w3.org/2000/svg" xmlns:xlink="http://www.w3.org/1999/xlink" x="0px" y="0px"
	 viewBox="0 0 63.5 45.5" enable-background="new 0 0 63.5 45.5" xml:space="preserve">
<g>
	<path d="M0,22.1c2.5,0,3.7-1.5,3.7-4.4c0-1.1-0.2-2.8-0.6-5.2c-0.4-2.4-0.6-4.1-0.6-5.2C2.5,2.5,5.2,0,10.6,0v1.6
		C8.9,1.6,7.6,2,6.9,2.8C6.2,3.7,5.9,4.7,5.9,6c0,1.3,0.2,3.2,0.7,5.7C7,14.2,7.3,16,7.3,17.2S7,19.5,6.3,20.6
		c-0.6,1.1-1.5,1.8-2.6,2.1c1.1,0.3,2,1,2.6,2.1s0.9,2.2,0.9,3.4S7,31.3,6.6,33.8c-0.5,2.5-0.7,4.3-0.7,5.4c0,3.2,1.6,4.7,4.7,4.7
		v1.5c-5.4,0-8.1-2.5-8.1-7.4c0-1.1,0.2-2.8,0.6-5.2c0.4-2.4,0.6-4.1,0.6-5.2c0-2.9-1.2-4.4-3.7-4.4V22.1z"/>
	<path d="M24.1,39.5c-2.5,0-4.5-0.9-6.2-2.6c-1.7-1.8-2.5-4.4-2.5-7.9c0-3.5,1-6.3,3.1-8.3c2-2,4.8-3.1,8.2-3.1c1.8,0,3.5,0.4,5,1.2
		V8l-3.8-0.2l0-1l8-0.9v31.9l3.7,0.2l0,1l-7.6,0.5l0.1-4.1h-0.3c-0.7,1.3-1.7,2.3-3.1,3S25.6,39.5,24.1,39.5z M31.6,32.3V20.4
		c-1.4-1.1-3.1-1.6-5.1-1.6c-2.6,0-4.3,1-5.2,3.1c-0.8,1.8-1.2,4.2-1.2,7.3c0,5.9,1.6,8.9,4.8,8.9c1.8,0,3.4-0.7,4.7-2.1
		S31.6,33.4,31.6,32.3z"/>
	<path d="M47.3,37c0,0.7-0.2,1.3-0.7,1.8s-1.1,0.8-1.8,0.8c-0.7,0-1.3-0.2-1.8-0.7s-0.7-1.1-0.7-1.8c0-0.7,0.2-1.3,0.7-1.8
		c0.5-0.5,1.1-0.8,1.8-0.8c0.7,0,1.3,0.3,1.8,0.8C47,35.7,47.3,36.3,47.3,37z"/>
	<path d="M63.5,22.1v1.2c-2.5,0-3.7,1.5-3.7,4.4c0,1.1,0.2,2.8,0.6,5.2c0.4,2.4,0.6,4.1,0.6,5.2c0,4.9-2.7,7.4-8.1,7.4v-1.5
		c3.1,0,4.7-1.6,4.7-4.7c0-1.1-0.2-2.9-0.7-5.4c-0.5-2.5-0.7-4.4-0.7-5.6s0.3-2.3,0.9-3.4c0.6-1.1,1.5-1.7,2.6-2.1
		c-1.1-0.3-1.9-1.1-2.6-2.1c-0.6-1.1-0.9-2.2-0.9-3.4s0.2-3,0.7-5.5c0.5-2.5,0.7-4.4,0.7-5.7c0-1.3-0.4-2.3-1.1-3.2
		c-0.7-0.8-1.9-1.2-3.6-1.2V0C58.3,0,61,2.5,61,7.4c0,1.1-0.2,2.9-0.6,5.2s-0.6,4.1-0.6,5.2C59.8,20.7,61.1,22.1,63.5,22.1z"/>
</g>
</svg>
